<?xml version="1.0" encoding="UTF-8" standalone="no"?>
<!-- Created with Inkscape (http://www.inkscape.org/) -->
<svg
   xmlns:dc="http://purl.org/dc/elements/1.1/"
   xmlns:cc="http://web.resource.org/cc/"
   xmlns:rdf="http://www.w3.org/1999/02/22-rdf-syntax-ns#"
   xmlns:svg="http://www.w3.org/2000/svg"
   xmlns="http://www.w3.org/2000/svg"
   xmlns:sodipodi="http://sodipodi.sourceforge.net/DTD/sodipodi-0.dtd"
   xmlns:inkscape="http://www.inkscape.org/namespaces/inkscape"
   width="753.15393"
   height="807.88446"
   id="svg2666"
   sodipodi:version="0.32"
   inkscape:version="0.45"
   version="1.0"
   inkscape:export-filename="kurulogo.png"
   inkscape:export-xdpi="9.5597992"
   inkscape:export-ydpi="9.5597992"
   sodipodi:docbase="/usr/home/iamscared/projects/kurupira/art"
   sodipodi:docname="kurulogo.svg"
   inkscape:output_extension="org.inkscape.output.svg.inkscape"
   sodipodi:modified="true">
  <defs
     id="defs2668" />
  <sodipodi:namedview
     id="base"
     pagecolor="#ffffff"
     bordercolor="#666666"
     borderopacity="1.0"
     gridtolerance="10000"
     guidetolerance="10"
     objecttolerance="10"
     inkscape:pageopacity="0.0"
     inkscape:pageshadow="2"
     inkscape:zoom="0.35"
     inkscape:cx="375"
     inkscape:cy="432.83347"
     inkscape:document-units="px"
     inkscape:current-layer="layer1"
     inkscape:window-width="743"
     inkscape:window-height="583"
     inkscape:window-x="505"
     inkscape:window-y="36"
     width="80px"
     height="857.86694px" />
  <metadata
     id="metadata2671">
    <rdf:RDF>
      <cc:Work
         rdf:about="">
        <dc:format>image/svg+xml</dc:format>
        <dc:type
           rdf:resource="http://purl.org/dc/dcmitype/StillImage" />
      </cc:Work>
    </rdf:RDF>
  </metadata>
  <g
     inkscape:label="Layer 1"
     inkscape:groupmode="layer"
     id="layer1"
     transform="translate(-90.457237,-41.605095)">
    <path
       style="font-size:148.16946411px;font-style:normal;font-weight:bold;fill:#ffffff;fill-opacity:1;stroke:#ffffff;stroke-width:11;stroke-linecap:butt;stroke-linejoin:miter;stroke-miterlimit:4;stroke-dasharray:none;stroke-opacity:1;font-family:BIP"
       d="M 169.66553,840.78799 C 162.86631,840.31924 151.87354,834.78799 136.68718,824.19425 L 117.40639,806.89738 L 116.2153,831.85831 C 116.21527,836.49892 116.21527,840.01455 116.2153,842.40518 C 111.84794,843.62392 107.55505,844.13954 103.33662,843.95206 C 99.167792,844.18642 97.579672,839.45205 98.572255,829.74894 C 100.11074,818.31145 99.961853,802.3974 98.125596,782.00675 C 96.289324,761.56932 95.619336,745.18653 96.115629,732.85832 C 96.611911,725.31156 98.448176,721.37406 101.62443,721.04582 C 104.85029,720.71781 108.12578,720.31938 111.45093,719.85051 C 116.41379,721.0225 119.14337,722.61625 119.63969,724.63176 C 120.18557,726.6475 120.70668,729.38968 121.20299,732.85832 C 120.70668,738.57717 120.28483,745.28029 119.93746,752.9677 C 118.59745,761.31152 118.82078,766.86619 120.60745,769.63176 C 124.23032,766.06933 134.28014,753.53027 150.75695,732.01457 C 157.30789,728.31155 163.66037,730.39749 169.81441,738.27239 C 176.01793,746.1006 169.98804,754.9834 151.72471,764.92082 C 144.727,768.81151 139.0445,773.80369 134.67722,779.89738 C 135.27272,788.19429 138.67229,795.3896 144.87594,801.48331 C 156.83641,811.46771 165.99292,816.95208 172.34548,817.93644 C 182.61856,821.31144 184.57889,825.99894 178.2265,831.99893 C 175.14943,837.15518 172.29577,840.08486 169.66553,840.78799 M 203.38831,827.78018 C 198.37579,820.56145 195.69583,811.58489 195.34844,800.8505 C 193.41291,790.58492 192.79255,775.98338 193.48736,757.04582 C 193.23921,751.18652 193.01588,745.56154 192.81737,740.17082 C 192.42034,735.20217 192.61885,730.18655 193.41292,725.12395 C 198.02839,723.5303 203.51236,723.06156 209.86487,723.7177 C 214.43069,723.48343 216.36621,728.68656 215.67144,739.32707 L 217.45808,778.56144 C 214.33144,807.20209 221.85019,818.24113 240.01437,811.67863 C 247.409,807.97552 252.54558,803.45209 255.42412,798.10831 C 258.35214,792.7646 257.73179,784.39743 253.56304,773.00675 C 247.16086,759.41308 242.52057,750.22559 239.64215,745.44426 C 236.76364,740.6631 245.05164,736.39748 264.50619,732.64739 C 268.77418,735.27248 272.02487,740.21779 274.25826,747.48332 L 281.77702,768.36613 C 291.35527,810.4599 282.99283,833.19424 256.68965,836.56925 C 230.43597,839.99111 212.66887,837.06143 203.38831,827.78018 M 352.64695,825.17862 C 343.11818,818.33489 334.65647,811.35052 327.26182,804.2255 L 326.74071,812.45206 L 327.11293,826.30363 C 327.1129,828.36613 326.39328,830.07706 324.95408,831.43644 C 323.56444,832.84268 321.05819,833.54581 317.43531,833.54581 C 310.68577,833.07705 306.29363,832.95986 304.25886,833.19425 C 302.22407,833.42862 301.7526,825.81144 302.84444,810.34269 C 303.93626,794.8271 304.8544,780.78806 305.59884,768.2255 C 306.39289,755.66309 306.74029,743.59279 306.64104,732.01457 C 306.09512,723.5303 311.50466,719.63969 322.86966,720.3427 L 339.69384,722.31146 C 347.23736,723.10843 353.71391,724.585 359.12351,726.74114 C 380.91048,737.24123 391.20845,750.34278 390.01744,766.04582 C 390.71216,773.40525 388.13146,780.29587 382.27535,786.71769 C 375.52575,791.78023 367.18812,794.54585 357.26243,795.01456 C 372.69692,802.84272 381.05936,807.62396 382.34979,809.35831 C 383.64006,811.0927 383.86339,813.50677 383.01979,816.6005 C 382.17601,819.69426 380.11642,823.70206 376.84099,828.62393 C 373.61505,833.54581 370.78621,835.53799 368.35447,834.60049 C 365.92259,833.70987 360.68675,830.56924 352.64695,825.17862 M 338.80051,738.9052 L 331.80285,740.87395 L 328.52735,746.56926 C 328.87471,750.03809 329.04842,752.87402 329.04845,755.07707 C 329.04842,758.82714 328.72583,763.4912 328.08069,769.06925 L 328.00625,775.11613 C 327.70844,780.41306 328.27918,783.08492 329.71844,783.13176 C 331.20727,783.17868 332.32392,783.20211 333.06838,783.20207 C 345.22739,780.90525 353.01911,779.12399 356.44356,777.85832 C 359.91751,776.54587 362.72153,774.76463 364.85563,772.51457 C 366.9896,770.26463 368.10626,766.65526 368.20558,761.68644 C 368.3544,756.6709 366.09629,752.05372 361.43125,747.83488 C 354.23502,742.67873 346.69144,739.70216 338.80051,738.9052 M 408.85158,827.78018 C 403.83907,820.56145 401.15911,811.58489 400.81172,800.8505 C 398.87619,790.58492 398.25582,775.98338 398.95063,757.04582 C 398.70248,751.18652 398.47916,745.56154 398.28064,740.17082 C 397.88361,735.20217 398.08212,730.18655 398.87619,725.12395 C 403.49166,723.5303 408.97564,723.06156 415.32814,723.7177 C 419.89396,723.48343 421.82949,728.68656 421.13471,739.32707 L 422.92135,778.56144 C 419.79471,807.20209 427.31347,818.24113 445.47764,811.67863 C 452.87228,807.97552 458.00885,803.45209 460.88739,798.10831 C 463.81542,792.7646 463.19507,784.39743 459.02631,773.00675 C 452.62414,759.41308 447.98385,750.22559 445.10543,745.44426 C 442.22691,740.6631 450.51491,736.39748 469.96946,732.64739 C 474.23746,735.27248 477.48815,740.21779 479.72152,747.48332 L 487.24029,768.36613 C 496.81855,810.4599 488.4561,833.19424 462.15293,836.56925 C 435.89925,839.99111 418.13215,837.06143 408.85158,827.78018 M 532.94844,805.56144 C 535.1817,822.99894 535.75243,831.88174 534.66063,832.20987 C 533.56877,832.58487 529.15181,832.77236 521.40974,832.77237 C 519.42458,832.77236 517.53868,832.70206 515.75206,832.56143 C 513.96541,832.46769 511.28546,832.09268 507.71219,831.43644 L 508.82884,812.59268 C 508.03477,802.60834 507.86108,791.75679 508.30774,780.03801 C 508.80402,768.31932 508.70476,757.13964 508.00997,746.49895 C 507.36478,735.85842 509.27549,728.45218 513.74209,724.2802 C 518.2583,720.10843 523.24599,718.06937 528.70517,718.16301 C 531.53399,717.92876 533.84173,717.81157 535.62839,717.81145 C 537.46463,717.81157 540.88901,718.16313 545.90156,718.86614 C 553.24657,720.03813 561.50976,723.20219 570.69115,728.35833 C 578.92945,733.6553 584.16529,741.7881 586.39867,752.75676 C 588.63188,766.02244 588.1356,775.93649 584.9098,782.49894 C 581.73348,789.01461 576.79542,794.05367 570.09561,797.61613 C 563.44529,801.13178 556.39801,803.3349 548.95373,804.2255 C 541.559,805.06928 536.22391,805.51459 532.94844,805.56144 M 545.4549,735.24895 C 536.17428,734.59279 530.91363,738.74123 529.67294,747.69426 C 528.48182,756.64745 528.90367,766.1162 530.93847,776.10051 C 532.97323,786.03805 540.51679,789.48336 553.56921,786.43644 C 566.62153,783.34274 573.02363,776.47556 572.77556,765.83488 C 572.57697,755.19434 570.29405,747.60059 565.92679,743.05364 C 561.55939,738.50685 554.73544,735.9053 545.4549,735.24895 M 621.16364,741.08489 C 620.02215,754.72558 619.45142,767.75682 619.45144,780.17863 C 619.45142,783.45993 619.55067,787.51461 619.74922,792.34269 C 619.94771,797.17085 620.04696,801.22553 620.04699,804.50675 C 620.04696,808.91303 620.44399,814.20989 621.23808,820.39737 C 622.03211,826.58487 620.94028,830.12394 617.96258,831.01456 C 614.68705,831.01456 609.77381,831.43644 603.22282,832.28018 C 596.72144,833.17081 596.67182,828.43644 603.07394,818.07706 C 603.57021,812.92083 603.81835,807.90521 603.81837,803.03019 C 603.57021,795.53022 603.22281,789.78805 602.77617,785.80362 C 602.3295,781.8193 602.10616,776.78024 602.10617,770.68644 C 602.10616,764.54589 601.01433,757.28027 598.83067,748.88957 C 594.36408,735.01467 597.76364,727.39749 609.02939,726.03801 C 621.73434,721.53813 625.77908,726.55374 621.16364,741.08489 M 684.66371,825.17862 C 675.13493,818.33489 666.67322,811.35052 659.27856,804.2255 L 658.75747,812.45206 L 659.12969,826.30363 C 659.12965,828.36613 658.41003,830.07706 656.97082,831.43644 C 655.5812,832.84268 653.07494,833.54581 649.45206,833.54581 C 642.70253,833.07705 638.31039,832.95986 636.27562,833.19425 C 634.24083,833.42862 633.76935,825.81144 634.86119,810.34269 C 635.95302,794.8271 636.87116,780.78806 637.61559,768.2255 C 638.40965,755.66309 638.75704,743.59279 638.65779,732.01457 C 638.11187,723.5303 643.5214,719.63969 654.88642,720.3427 L 671.71058,722.31146 C 679.25412,723.10843 685.73067,724.585 691.14027,726.74114 C 712.92723,737.24123 723.2252,750.34278 722.0342,766.04582 C 722.72891,773.40525 720.14822,780.29587 714.29211,786.71769 C 707.54251,791.78023 699.20488,794.54585 689.27919,795.01456 C 704.71367,802.84272 713.07612,807.62396 714.36655,809.35831 C 715.65681,811.0927 715.88014,813.50677 715.03654,816.6005 C 714.19276,819.69426 712.13317,823.70206 708.85775,828.62393 C 705.6318,833.54581 702.80296,835.53799 700.37122,834.60049 C 697.93935,833.70987 692.70351,830.56924 684.66371,825.17862 M 670.81727,738.9052 L 663.8196,740.87395 L 660.54411,746.56926 C 660.89147,750.03809 661.06517,752.87402 661.0652,755.07707 C 661.06517,758.82714 660.74258,763.4912 660.09745,769.06925 L 660.023,775.11613 C 659.72519,780.41306 660.29592,783.08492 661.73519,783.13176 C 663.22402,783.17868 664.34067,783.20211 665.08514,783.20207 C 677.24415,780.90525 685.03587,779.12399 688.46031,777.85832 C 691.93426,776.54587 694.73829,774.76463 696.87239,772.51457 C 699.00636,770.26463 700.12301,766.65526 700.22234,761.68644 C 700.37116,756.6709 698.11304,752.05372 693.44801,747.83488 C 686.25178,742.67873 678.7082,739.70216 670.81727,738.9052 M 798.93405,811.11613 C 792.53186,810.74114 784.59126,810.76458 775.11222,811.18644 C 774.26847,816.01457 772.45703,821.07707 769.67786,826.37393 C 766.8986,831.67081 762.35758,834.88174 756.05476,836.00674 C 749.8015,837.17861 743.87086,836.82705 738.26283,834.95206 C 732.70439,833.12393 729.65222,829.23331 729.10631,823.28019 C 728.56039,817.2802 732.15847,804.99897 739.90057,786.43644 C 747.69227,767.87401 755.70732,752.38183 763.94573,739.95989 C 772.23369,727.53812 785.11236,722.61625 802.58177,725.19427 C 812.25929,726.60061 818.93436,732.74123 822.60699,743.61613 C 826.32905,754.44434 830.15046,770.42869 834.07125,791.56925 C 837.99181,812.66302 839.05883,824.75675 837.2723,827.8505 C 835.53518,830.89737 832.68153,833.03018 828.71134,834.24893 C 824.79056,835.46768 819.03362,835.9833 811.4405,835.79581 C 803.84722,835.65518 799.6784,827.42862 798.93405,811.11613 M 776.52664,779.19426 C 776.22882,783.55368 781.43984,785.26461 792.15972,784.32707 C 803.27648,784.70211 807.12272,778.77243 803.69841,766.53801 C 803.45019,759.03808 800.32358,754.37402 794.31857,752.54583 C 787.56898,751.65527 781.63835,760.53808 776.52664,779.19426"
       id="text6352" />
    <g
       id="g30652"
       transform="translate(140.59962,-85.735024)"
       style="fill:#ffffff;fill-opacity:1"
       inkscape:export-filename="/usr/home/iamscared/kurupira.png"
       inkscape:export-xdpi="11.94"
       inkscape:export-ydpi="11.94">
      <g
         style="fill:#ffffff;fill-opacity:1"
         transform="translate(-17.09679,0)"
         id="g26142">
        <path
           style="fill:#ffffff;fill-opacity:1;fill-rule:evenodd;stroke:none;stroke-width:1.79999995;stroke-linecap:butt;stroke-linejoin:miter;stroke-miterlimit:4;stroke-dasharray:none;stroke-opacity:1"
           d="M 355.93538,275.75 C 337.87565,293.78894 332.9841,331.81116 347.88749,364.27719 C 370.54997,413.64565 404.81056,438.86646 408.24678,478.96011 C 412.60941,529.86302 378.34746,597.15051 378.06714,647.96578 C 377.84773,687.74434 404.72623,745.51362 468.60611,752.58874 C 537.17247,761.75799 593.18898,599.22592 631.57629,454.81604 C 641.7246,395.06416 663.79123,328.61838 605.42059,271.72626 C 505.7665,197.20272 410.61665,221.13207 355.93538,275.75 z "
           id="path22519"
           sodipodi:nodetypes="ccccssss" />
        <g
           style="fill:#ffffff;fill-opacity:1"
           transform="matrix(0.87281,-3.923528e-2,3.923528e-2,0.87281,-810.6372,-39.99716)"
           id="g26130">
          <path
             transform="matrix(0.789037,0.222274,-0.130777,0.710381,2051.183,326.7095)"
             d="M -805.71428 263.79074 A 68.571426 82.85714 0 1 1  -942.85713,263.79074 A 68.571426 82.85714 0 1 1  -805.71428 263.79074 z"
             sodipodi:ry="82.85714"
             sodipodi:rx="68.571426"
             sodipodi:cy="263.79074"
             sodipodi:cx="-874.28571"
             id="path26132"
             style="color:#000000;fill:#ffffff;fill-opacity:1;fill-rule:evenodd;stroke:none;stroke-width:1.30234694;stroke-linecap:butt;stroke-linejoin:miter;marker:none;marker-start:none;marker-mid:none;marker-end:none;stroke-miterlimit:4;stroke-dasharray:none;stroke-dashoffset:0;stroke-opacity:1;visibility:visible;display:inline;overflow:visible"
             sodipodi:type="arc" />
          <path
             transform="matrix(0.618628,0.296235,-0.207288,0.574117,2027.178,415.3636)"
             d="M -805.71428 263.79074 A 68.571426 82.85714 0 1 1  -942.85713,263.79074 A 68.571426 82.85714 0 1 1  -805.71428 263.79074 z"
             sodipodi:ry="82.85714"
             sodipodi:rx="68.571426"
             sodipodi:cy="263.79074"
             sodipodi:cx="-874.28571"
             id="path26134"
             style="color:#000000;fill:#ffffff;fill-opacity:1;fill-rule:evenodd;stroke:none;stroke-width:1.33623648;stroke-linecap:butt;stroke-linejoin:miter;marker:none;marker-start:none;marker-mid:none;marker-end:none;stroke-miterlimit:4;stroke-dasharray:none;stroke-dashoffset:0;stroke-opacity:1;visibility:visible;display:inline;overflow:visible"
             sodipodi:type="arc" />
          <path
             transform="matrix(0.411208,0.458716,-0.365809,0.370832,1977.332,622.6267)"
             d="M -805.71428 263.79074 A 68.571426 82.85714 0 1 1  -942.85713,263.79074 A 68.571426 82.85714 0 1 1  -805.71428 263.79074 z"
             sodipodi:ry="82.85714"
             sodipodi:rx="68.571426"
             sodipodi:cy="263.79074"
             sodipodi:cx="-874.28571"
             id="path26136"
             style="color:#000000;fill:#ffffff;fill-opacity:1;fill-rule:evenodd;stroke:none;stroke-width:1.33623648;stroke-linecap:butt;stroke-linejoin:miter;marker:none;marker-start:none;marker-mid:none;marker-end:none;stroke-miterlimit:4;stroke-dasharray:none;stroke-dashoffset:0;stroke-opacity:1;visibility:visible;display:inline;overflow:visible"
             sodipodi:type="arc" />
          <path
             transform="matrix(0.34021,0.379514,-0.302649,0.306805,1970.235,607.2082)"
             d="M -805.71428 263.79074 A 68.571426 82.85714 0 1 1  -942.85713,263.79074 A 68.571426 82.85714 0 1 1  -805.71428 263.79074 z"
             sodipodi:ry="82.85714"
             sodipodi:rx="68.571426"
             sodipodi:cy="263.79074"
             sodipodi:cx="-874.28571"
             id="path26138"
             style="color:#000000;fill:#ffffff;fill-opacity:1;fill-rule:evenodd;stroke:none;stroke-width:1.33623648;stroke-linecap:butt;stroke-linejoin:miter;marker:none;marker-start:none;marker-mid:none;marker-end:none;stroke-miterlimit:4;stroke-dasharray:none;stroke-dashoffset:0;stroke-opacity:1;visibility:visible;display:inline;overflow:visible"
             sodipodi:type="arc" />
          <path
             transform="matrix(0.243993,0.27218,-0.217055,0.220035,1908.565,590.8773)"
             d="M -805.71428 263.79074 A 68.571426 82.85714 0 1 1  -942.85713,263.79074 A 68.571426 82.85714 0 1 1  -805.71428 263.79074 z"
             sodipodi:ry="82.85714"
             sodipodi:rx="68.571426"
             sodipodi:cy="263.79074"
             sodipodi:cx="-874.28571"
             id="path26140"
             style="color:#000000;fill:#ffffff;fill-opacity:1;fill-rule:evenodd;stroke:none;stroke-width:1.33623648;stroke-linecap:butt;stroke-linejoin:miter;marker:none;marker-start:none;marker-mid:none;marker-end:none;stroke-miterlimit:4;stroke-dasharray:none;stroke-dashoffset:0;stroke-opacity:1;visibility:visible;display:inline;overflow:visible"
             sodipodi:type="arc" />
        </g>
      </g>
      <path
         sodipodi:nodetypes="ccccssss"
         id="path26153"
         d="M 315.17363,604.5498 C 333.23336,586.51086 338.12491,548.48864 323.22152,516.02261 C 300.55904,466.65415 266.29845,441.43334 262.86223,401.33969 C 258.4996,350.43678 292.76155,283.14929 293.04187,232.33402 C 293.26128,192.55546 266.38278,134.78618 202.5029,127.71106 C 133.93654,118.54181 77.92003,281.07388 39.53272,425.48376 C 29.38441,485.23564 7.31778,551.68142 65.68842,608.57354 C 165.34251,683.09708 260.49236,659.16773 315.17363,604.5498 z "
         style="fill:#ffffff;fill-opacity:1;fill-rule:evenodd;stroke:none;stroke-width:1.79999995;stroke-linecap:butt;stroke-linejoin:miter;stroke-miterlimit:4;stroke-dasharray:none;stroke-opacity:1" />
      <g
         style="fill:#ffffff;fill-opacity:1"
         id="g26155"
         transform="matrix(-0.87281,3.923528e-2,-3.923528e-2,-0.87281,1481.746,920.297)">
        <path
           sodipodi:type="arc"
           style="color:#000000;fill:#ffffff;fill-opacity:1;fill-rule:evenodd;stroke:none;stroke-width:1.30234694;stroke-linecap:butt;stroke-linejoin:miter;marker:none;marker-start:none;marker-mid:none;marker-end:none;stroke-miterlimit:4;stroke-dasharray:none;stroke-dashoffset:0;stroke-opacity:1;visibility:visible;display:inline;overflow:visible"
           id="path26157"
           sodipodi:cx="-874.28571"
           sodipodi:cy="263.79074"
           sodipodi:rx="68.571426"
           sodipodi:ry="82.85714"
           d="M -805.71428 263.79074 A 68.571426 82.85714 0 1 1  -942.85713,263.79074 A 68.571426 82.85714 0 1 1  -805.71428 263.79074 z"
           transform="matrix(0.789037,0.222274,-0.130777,0.710381,2051.183,326.7095)" />
        <path
           sodipodi:type="arc"
           style="color:#000000;fill:#ffffff;fill-opacity:1;fill-rule:evenodd;stroke:none;stroke-width:1.33623648;stroke-linecap:butt;stroke-linejoin:miter;marker:none;marker-start:none;marker-mid:none;marker-end:none;stroke-miterlimit:4;stroke-dasharray:none;stroke-dashoffset:0;stroke-opacity:1;visibility:visible;display:inline;overflow:visible"
           id="path26159"
           sodipodi:cx="-874.28571"
           sodipodi:cy="263.79074"
           sodipodi:rx="68.571426"
           sodipodi:ry="82.85714"
           d="M -805.71428 263.79074 A 68.571426 82.85714 0 1 1  -942.85713,263.79074 A 68.571426 82.85714 0 1 1  -805.71428 263.79074 z"
           transform="matrix(0.618628,0.296235,-0.207288,0.574117,2027.178,415.3636)" />
        <path
           sodipodi:type="arc"
           style="color:#000000;fill:#ffffff;fill-opacity:1;fill-rule:evenodd;stroke:none;stroke-width:1.33623648;stroke-linecap:butt;stroke-linejoin:miter;marker:none;marker-start:none;marker-mid:none;marker-end:none;stroke-miterlimit:4;stroke-dasharray:none;stroke-dashoffset:0;stroke-opacity:1;visibility:visible;display:inline;overflow:visible"
           id="path26161"
           sodipodi:cx="-874.28571"
           sodipodi:cy="263.79074"
           sodipodi:rx="68.571426"
           sodipodi:ry="82.85714"
           d="M -805.71428 263.79074 A 68.571426 82.85714 0 1 1  -942.85713,263.79074 A 68.571426 82.85714 0 1 1  -805.71428 263.79074 z"
           transform="matrix(0.411208,0.458716,-0.365809,0.370832,1977.332,622.6267)" />
        <path
           sodipodi:type="arc"
           style="color:#000000;fill:#ffffff;fill-opacity:1;fill-rule:evenodd;stroke:none;stroke-width:1.33623648;stroke-linecap:butt;stroke-linejoin:miter;marker:none;marker-start:none;marker-mid:none;marker-end:none;stroke-miterlimit:4;stroke-dasharray:none;stroke-dashoffset:0;stroke-opacity:1;visibility:visible;display:inline;overflow:visible"
           id="path26163"
           sodipodi:cx="-874.28571"
           sodipodi:cy="263.79074"
           sodipodi:rx="68.571426"
           sodipodi:ry="82.85714"
           d="M -805.71428 263.79074 A 68.571426 82.85714 0 1 1  -942.85713,263.79074 A 68.571426 82.85714 0 1 1  -805.71428 263.79074 z"
           transform="matrix(0.34021,0.379514,-0.302649,0.306805,1970.235,607.2082)" />
        <path
           sodipodi:type="arc"
           style="color:#000000;fill:#ffffff;fill-opacity:1;fill-rule:evenodd;stroke:none;stroke-width:1.33623648;stroke-linecap:butt;stroke-linejoin:miter;marker:none;marker-start:none;marker-mid:none;marker-end:none;stroke-miterlimit:4;stroke-dasharray:none;stroke-dashoffset:0;stroke-opacity:1;visibility:visible;display:inline;overflow:visible"
           id="path26165"
           sodipodi:cx="-874.28571"
           sodipodi:cy="263.79074"
           sodipodi:rx="68.571426"
           sodipodi:ry="82.85714"
           d="M -805.71428 263.79074 A 68.571426 82.85714 0 1 1  -942.85713,263.79074 A 68.571426 82.85714 0 1 1  -805.71428 263.79074 z"
           transform="matrix(0.243993,0.27218,-0.217055,0.220035,1908.565,590.8773)" />
      </g>
    </g>
  </g>
</svg>
